<svg width="20" height="24" viewBox="0 0 20 24" fill="none" xmlns="http://www.w3.org/2000/svg">
<path fill-rule="evenodd" clip-rule="evenodd" d="M5.71596 1.71429C5.71596 1.25963 5.89657 0.823594 6.21806 0.502103C6.53955 0.180612 6.97559 0 7.43025 0L12.5731 0C13.0278 0 13.4638 0.180612 13.7853 0.502103C14.1068 0.823594 14.2874 1.25963 14.2874 1.71429V2.57143C14.2874 3.02609 14.1068 3.46212 13.7853 3.78361C13.4638 4.1051 13.0278 4.28571 12.5731 4.28571H7.43025C7.20512 4.28571 6.9822 4.24137 6.77422 4.15522C6.56623 4.06907 6.37725 3.9428 6.21806 3.78361C6.05888 3.62443 5.9326 3.43544 5.84645 3.22746C5.7603 3.01947 5.71596 2.79655 5.71596 2.57143V1.71429ZM16.4302 1.71429H17.2874C17.9694 1.71429 18.6234 1.9852 19.1057 2.46744C19.5879 2.94968 19.8588 3.60373 19.8588 4.28571V21.4286C19.8588 21.7663 19.7923 22.1006 19.6631 22.4126C19.5339 22.7246 19.3444 23.0081 19.1057 23.2468C18.8669 23.4856 18.5834 23.675 18.2714 23.8043C17.9595 23.9335 17.6251 24 17.2874 24H2.71596C2.03397 24 1.37992 23.7291 0.897685 23.2468C0.415449 22.7646 0.144531 22.1106 0.144531 21.4286V4.28571C0.144531 3.94803 0.211043 3.61365 0.34027 3.30167C0.469496 2.98969 0.658906 2.70622 0.897685 2.46744C1.13646 2.22866 1.41994 2.03925 1.73192 1.91002C2.0439 1.7808 2.37828 1.71429 2.71596 1.71429H3.5731V2.57143C3.5731 3.59441 3.97948 4.57549 4.70283 5.29884C5.061 5.65701 5.48621 5.94112 5.95418 6.13496C6.42215 6.3288 6.92372 6.42857 7.43025 6.42857H12.5731C13.0796 6.42857 13.5812 6.3288 14.0492 6.13496C14.5171 5.94112 14.9423 5.65701 15.3005 5.29884C15.6587 4.94067 15.9428 4.51546 16.1366 4.04749C16.3305 3.57952 16.4302 3.07796 16.4302 2.57143V1.71429ZM8.23596 10.1966C8.23596 9.82457 8.53767 9.52457 8.90967 9.52457H11.0954C11.4657 9.52457 11.7674 9.82457 11.7674 10.1966V12.8709H14.4417C14.8137 12.8709 15.1137 13.1726 15.1137 13.5446V15.7303C15.1137 15.9085 15.0429 16.0794 14.9169 16.2055C14.7908 16.3315 14.6199 16.4023 14.4417 16.4023H11.7674V19.0766C11.7676 19.165 11.7504 19.2525 11.7167 19.3343C11.6831 19.416 11.6336 19.4903 11.5712 19.5529C11.5087 19.6154 11.4346 19.6651 11.3529 19.699C11.2713 19.7328 11.1838 19.7503 11.0954 19.7503H8.90796C8.81957 19.7503 8.73204 19.7328 8.6504 19.699C8.56876 19.6651 8.4946 19.6154 8.43218 19.5529C8.36975 19.4903 8.32029 19.416 8.28662 19.3343C8.25295 19.2525 8.23573 19.165 8.23596 19.0766V16.4023H5.56167C5.38345 16.4023 5.21252 16.3315 5.0865 16.2055C4.96047 16.0794 4.88967 15.9085 4.88967 15.7303V13.5429C4.88967 13.1709 5.18967 12.8691 5.56167 12.8691H8.23596V10.1949V10.1966Z" fill="#8F9BB3"/>
</svg>
