<svg width="24" height="24" viewBox="0 0 24 24" fill="none" xmlns="http://www.w3.org/2000/svg">
<path d="M10.503 1.37962C10.0388 1.02682 9.46855 0.842336 8.88591 0.856196H2.57143C1.88945 0.856196 1.23539 1.12711 0.753154 1.60935C0.270917 2.09159 0 2.74564 0 3.42763V20.5704C0 21.2525 0.270917 21.9065 0.753154 22.3888C1.23539 22.871 1.88943 23.1418 2.57143 23.1418H21.4286C22.1105 23.1418 22.7647 22.871 23.2469 22.3888C23.7291 21.9065 24 21.2525 24 20.5704V6.8562C24 6.17421 23.7291 5.52016 23.2469 5.03793C22.7647 4.55568 22.1105 4.28478 21.4286 4.28478H11.8121L11.4436 2.81085C11.3026 2.24087 10.9705 1.73493 10.503 1.37962Z" fill="#8F9BB3"/>
</svg>
