<svg width="24" height="23" viewBox="0 0 24 23" fill="none" xmlns="http://www.w3.org/2000/svg">
<path fill-rule="evenodd" clip-rule="evenodd" d="M10.7878 1.21694C11.4573 0.547478 12.5427 0.547478 13.2122 1.21694L23.4979 11.5027C24.1673 12.1721 24.1673 13.2576 23.4979 13.927C22.8285 14.5965 21.743 14.5965 21.0735 13.927L20.5714 13.4249V21.2863C20.5714 22.2331 19.8039 23.0006 18.8571 23.0006H16C15.4477 23.0006 15 22.5528 15 22.0006V15.0006C15 14.4483 14.5523 14.0006 14 14.0006L10 14.0006C9.44771 14.0006 9 14.4483 9 15.0006V22.0006C9 22.5528 8.55228 23.0006 8 23.0006L5.14286 23.0006C4.19609 23.0006 3.42857 22.2331 3.42857 21.2863V13.4249L2.92647 13.927C2.25699 14.5965 1.17157 14.5965 0.502102 13.927C-0.167367 13.2576 -0.167367 12.1721 0.502102 11.5027L10.7878 1.21694Z" fill="#E40045"/>
</svg>
