<svg width="24" height="22" viewBox="0 0 24 22" fill="none" xmlns="http://www.w3.org/2000/svg">
<path fill-rule="evenodd" clip-rule="evenodd" d="M13.7143 5.71512C13.7143 8.55544 11.4117 10.858 8.57143 10.858C5.73111 10.858 3.42857 8.55544 3.42857 5.71512C3.42857 2.87481 5.73111 0.572266 8.57143 0.572266C11.4117 0.572266 13.7143 2.87481 13.7143 5.71512ZM8.57143 12.5722C3.83757 12.5722 0 16.4098 0 21.1436C0 21.617 0.383757 22.0008 0.857143 22.0008H16.2857C16.7591 22.0008 17.1429 21.617 17.1429 21.1436C17.1429 16.4098 13.3053 12.5722 8.57143 12.5722ZM23.143 22.0008H19.1616C19.2425 21.7292 19.2859 21.4414 19.2859 21.1436C19.2859 17.6446 17.6086 14.5374 15.0143 12.5821C15.1516 12.5755 15.2898 12.5722 15.4287 12.5722C20.1626 12.5722 24.0002 16.4098 24.0002 21.1436C24.0002 21.617 23.6163 22.0008 23.143 22.0008ZM15.4287 10.858C14.9115 10.858 14.4121 10.7816 13.9411 10.6395C15.131 9.34281 15.8573 7.61378 15.8573 5.71512C15.8573 3.81647 15.131 2.08744 13.9411 0.790683C14.4121 0.64862 14.9115 0.572266 15.4287 0.572266C18.269 0.572266 20.5716 2.87481 20.5716 5.71512C20.5716 8.55544 18.269 10.858 15.4287 10.858Z" fill="#8F9BB3"/>
</svg>
