<svg width="22" height="23" viewBox="0 0 22 23" fill="none" xmlns="http://www.w3.org/2000/svg">
<path fill-rule="evenodd" clip-rule="evenodd" d="M13.5536 1.62472C13.5536 1.15134 13.9373 0.767578 14.4107 0.767578H17.1963C17.6698 0.767578 18.0535 1.15134 18.0535 1.62472V4.03549H20.4643C20.9376 4.03549 21.3214 4.41923 21.3214 4.89263V7.67834C21.3214 8.15173 20.9376 8.53549 20.4643 8.53549H18.0535V10.9461C18.0535 11.4195 17.6698 11.8033 17.1963 11.8033H14.4107C13.9373 11.8033 13.5536 11.4195 13.5536 10.9461V8.53549H11.1429C10.6695 8.53549 10.2857 8.15173 10.2857 7.67834V4.89263C10.2857 4.41923 10.6695 4.03549 11.1429 4.03549H13.5536V1.62472ZM3.15969 10.9997H0V17.8569L3.13445 20.9913C4.42041 22.2773 6.16455 22.9997 7.98317 22.9997H18C19.4201 22.9997 20.5714 21.8484 20.5714 20.4283C20.5714 19.0082 19.4201 17.8569 18 17.8569H13.2397C13.0742 18.4166 12.7706 18.9441 12.3289 19.3857C10.9164 20.7982 8.62627 20.7982 7.21375 19.3857L4.72802 16.9C4.30959 16.4815 4.30959 15.8032 4.72802 15.3848C5.14644 14.9663 5.82483 14.9663 6.24324 15.3848L8.72899 17.8704C9.30466 18.4462 10.238 18.4462 10.8137 17.8704C11.3314 17.3529 11.3836 16.5458 10.9701 15.9698L8.00841 13.0081C6.72245 11.7222 4.9783 10.9997 3.15969 10.9997Z" fill="#8F9BB3"/>
</svg>
