<svg width="24" height="24" viewBox="0 0 24 24" fill="none" xmlns="http://www.w3.org/2000/svg">
<path fill-rule="evenodd" clip-rule="evenodd" d="M11.9777 2.57234C11.2611 2.5594 10.5489 2.6879 9.88202 2.9505C9.21511 3.2131 8.60653 3.60463 8.09111 4.1027C7.57569 4.60076 7.16355 5.19558 6.87827 5.85311C6.59299 6.51064 6.44017 7.21797 6.42857 7.93463V15.4295C6.42857 15.6546 6.38423 15.8775 6.29808 16.0855C6.21193 16.2935 6.08565 16.4825 5.92647 16.6417C5.76728 16.8009 5.5783 16.9271 5.37031 17.0133C5.16233 17.0994 4.93941 17.1438 4.71429 17.1438H2.57143C1.88944 17.1438 1.23539 16.8729 0.753154 16.3906C0.270918 15.9084 0 15.2543 0 14.5723L0 11.1438C0 10.4618 0.270918 9.80773 0.753154 9.32549C1.23539 8.84326 1.88944 8.57234 2.57143 8.57234H3.85714V7.90377C3.87278 6.85016 4.09583 5.80995 4.51353 4.84255C4.93124 3.87514 5.53542 2.9995 6.29158 2.26563C7.04774 1.53176 7.94105 0.954035 8.92052 0.56545C9.89998 0.176866 10.9464 -0.0149662 12 0.000910824C13.0536 -0.0149662 14.1 0.176866 15.0795 0.56545C16.0589 0.954035 16.9523 1.53176 17.7084 2.26563C18.4646 2.9995 19.0688 3.87514 19.4865 4.84255C19.9042 5.80995 20.1272 6.85016 20.1429 7.90377V7.92091V8.57234H21.4286C21.7663 8.57234 22.1006 8.63885 22.4126 8.76808C22.7246 8.8973 23.0081 9.08671 23.2468 9.32549C23.4856 9.56427 23.675 9.84775 23.8043 10.1597C23.9335 10.4717 24 10.8061 24 11.1438V14.5723C24 15.2543 23.7291 15.9084 23.2468 16.3906C22.7646 16.8729 22.1106 17.1438 21.4286 17.1438H20.1429V18.0009C20.1431 19.1594 19.7168 20.2773 18.9452 21.1415C18.1737 22.0056 17.1111 22.5555 15.96 22.6861C15.7365 23.0852 15.4105 23.4174 15.0158 23.6485C14.621 23.8797 14.1717 24.0013 13.7143 24.0009H11.1429C10.4609 24.0009 9.80682 23.73 9.32458 23.2478C8.84235 22.7655 8.57143 22.1115 8.57143 21.4295C8.57143 20.7475 8.84235 20.0934 9.32458 19.6112C9.80682 19.129 10.4609 18.8581 11.1429 18.8581H13.7143C14.6434 18.8581 15.4577 19.3501 15.9086 20.0889C16.3811 19.9803 16.8028 19.7147 17.1048 19.3354C17.4068 18.9562 17.5713 18.4857 17.5714 18.0009V7.93291C17.5597 7.21257 17.4052 6.5017 17.1171 5.8414C16.8289 5.1811 16.4127 4.58447 15.8926 4.086C15.3724 3.58753 14.7586 3.1971 14.0867 2.93729C13.4147 2.67748 12.6979 2.55344 11.9777 2.57234Z" fill="#8F9BB3"/>
</svg>
