<svg width="23" height="24" viewBox="0 0 23 24" fill="none" xmlns="http://www.w3.org/2000/svg">
<path fill-rule="evenodd" clip-rule="evenodd" d="M6.59028 1.29008C6.52431 0.633042 5.97134 0.132812 5.31099 0.132812H1.32087C0.61079 0.132812 0.0351562 0.708446 0.0351562 1.41853C0.0351562 2.12861 0.61079 2.70425 1.32087 2.70425H4.14792L4.57925 7.00009C4.5791 7.03013 4.58052 7.06028 4.58355 7.09045L5.41027 15.3101C5.41171 15.3244 5.41351 15.3387 5.41565 15.3529C5.50437 15.9378 5.8015 16.471 6.25231 16.8542C6.70176 17.2362 7.27377 17.4434 7.8635 17.4381H17.8944C18.4209 17.4602 18.9408 17.3123 19.3769 17.0157C19.8199 16.7145 20.1521 16.2766 20.3229 15.7688L20.3237 15.7661L22.4465 9.3819L22.447 9.3799C22.5688 9.01097 22.601 8.61843 22.5413 8.23458C22.4818 7.85209 22.3327 7.48914 22.1061 7.17536C21.8688 6.8425 21.5522 6.57418 21.1848 6.39478C20.8226 6.21788 20.4225 6.13302 20.02 6.14754H7.07801L6.59028 1.29008ZM19.5866 21.9805C19.5866 20.8653 18.6826 19.9614 17.5675 19.9614C16.4523 19.9614 15.5482 20.8653 15.5482 21.9805C15.5482 23.0956 16.4523 23.9997 17.5675 23.9997C18.6826 23.9997 19.5866 23.0956 19.5866 21.9805ZM8.74574 19.9614C9.8609 19.9614 10.7649 20.8653 10.7649 21.9805C10.7649 23.0956 9.8609 23.9997 8.74574 23.9997C7.63056 23.9997 6.72655 23.0956 6.72655 21.9805C6.72655 20.8653 7.63056 19.9614 8.74574 19.9614Z" fill="#8F9BB3"/>
</svg>
