<svg width="30" height="30" viewBox="0 0 30 30" fill="none" xmlns="http://www.w3.org/2000/svg">
<path fill-rule="evenodd" clip-rule="evenodd" d="M11.8183 2.57653e-06C8.68391 2.57653e-06 5.67789 1.24514 3.46153 3.46149C1.24519 5.67785 5.88108e-05 8.68385 5.88108e-05 11.8182C-0.00732193 14.1445 0.680164 16.42 1.9744 18.353L0.395289 22.5789C0.220858 23.0456 0.620867 23.5247 1.11131 23.4366L6.64607 22.4409C7.19576 22.7087 7.76381 22.9331 8.34491 23.1122C8.1426 22.2264 8.03574 21.3042 8.03574 20.3571C8.03574 13.5522 13.5522 8.03572 20.3572 8.03572C21.3082 8.03572 22.2341 8.14346 23.1231 8.34742C22.6896 6.93596 21.9945 5.61566 21.0714 4.45646C19.9637 3.06536 18.5564 1.94216 16.9542 1.17056C15.3521 0.398949 13.5965 -0.00117154 11.8183 2.57653e-06ZM27.1761 13.5386C25.3676 11.7302 22.9149 10.7143 20.3575 10.7143C18.9066 10.7133 17.4742 11.0398 16.1669 11.6694C14.8597 12.299 13.7114 13.2154 12.8076 14.3504C11.9038 15.4855 11.2678 16.8098 10.947 18.2248C10.6262 19.6399 10.6287 21.109 10.9546 22.5229C11.2805 23.9368 11.9212 25.2589 12.829 26.3906C13.7369 27.5224 14.8884 28.4349 16.1979 29.0597C17.5073 29.6846 18.9409 30.006 20.3918 30C21.8428 29.9938 23.2736 29.6604 24.5777 29.0244L28.8891 29.8001C29.3796 29.8884 29.7795 29.4092 29.6051 28.9423L28.3894 25.689C29.4454 24.1119 30.0064 22.2553 30.0004 20.3571C30.0004 17.7997 28.9845 15.347 27.1761 13.5386Z" fill="white"/>
</svg>
