<svg width="45" height="45" viewBox="0 0 45 45" fill="none" xmlns="http://www.w3.org/2000/svg">
<path fill-rule="evenodd" clip-rule="evenodd" d="M22.1641 1.5646e-06C26.5501 -0.00164576 30.838 1.29755 34.4856 3.73326C38.1331 6.16896 40.9763 9.63174 42.6555 13.6836C44.3347 17.7354 44.7745 22.1942 43.9192 26.496C43.0639 30.7978 40.9521 34.7493 37.8507 37.8507C34.7493 40.9521 30.7978 43.0639 26.496 43.9192C22.1942 44.7745 17.7354 44.3347 13.6836 42.6555C9.63174 40.9763 6.16896 38.1331 3.73326 34.4856C1.29755 30.838 -0.00164576 26.5501 1.5646e-06 22.1641C0.00220912 16.2865 2.33806 10.6502 6.49415 6.49415C10.6502 2.33806 16.2865 0.00220912 22.1641 1.5646e-06" fill="#E31243"/>
<path d="M22.1631 13.4111C23.679 10.2293 27.5021 9.24644 30.9504 10.2043C34.3987 11.1622 37.4805 13.9191 37.4805 18.2004C37.4805 26.9294 27.7353 32.2601 22.188 38.0656C16.6574 32.2601 6.87891 26.9377 6.87891 18.2004C6.87891 13.9191 9.94406 11.1288 13.384 10.2043C16.824 9.27976 20.6471 10.2043 22.1631 13.4111Z" fill="#CA013C"/>
<path d="M24.5313 15.084V19.8067H29.254V24.5293H24.5313V29.252H19.8086V24.5293H15.0859V19.8067H19.8086V15.084H24.5313Z" fill="white"/>
</svg>
