<svg width="105" height="29" viewBox="0 0 105 29" fill="none" xmlns="http://www.w3.org/2000/svg">
<path d="M103.995 1.26105L98.8645 11.7451H98.4418L93.295 1.28591V13.9745H92.7978V0.125617H93.3531L98.6655 11.0075L103.995 0.125617H104.492V13.9745H103.995V1.26105ZM85.2559 14.0906C84.6291 14.0972 84.007 13.9818 83.4243 13.7508C82.8698 13.5379 82.3649 13.2135 81.9408 12.7977C81.5128 12.3753 81.1794 11.8668 80.9628 11.3059C80.7142 10.687 80.5902 10.0251 80.5981 9.35823V0.125617H81.1203V9.1013C81.114 9.71361 81.215 10.3223 81.4186 10.8998C81.5986 11.4247 81.8802 11.9091 82.2474 12.3253C82.6115 12.7222 83.0548 13.0384 83.5486 13.2535C84.0706 13.4836 84.6357 13.5994 85.2062 13.5933C85.7722 13.6047 86.3352 13.5062 86.8637 13.3032C87.3511 13.122 87.7946 12.8395 88.1649 12.4744C88.5481 12.0914 88.8448 11.6308 89.0351 11.1235C89.2444 10.5502 89.3483 9.94369 89.3418 9.33336V0.125617H89.8805V9.55713C89.8877 10.1918 89.7636 10.821 89.5158 11.4053C89.2923 11.9456 88.9593 12.4338 88.5378 12.8391C88.1099 13.2399 87.6091 13.555 87.0626 13.7673C86.4848 13.9832 85.8727 14.0927 85.2559 14.0906V14.0906ZM69.9069 0.606309V6.88846H74.2994C74.7797 6.89355 75.2579 6.82364 75.7166 6.68127C76.1345 6.55418 76.5232 6.34576 76.8603 6.06797C77.1902 5.78862 77.4511 5.43693 77.6228 5.04028C77.8222 4.58926 77.9185 4.09943 77.9046 3.60649C77.9167 3.1297 77.8114 2.65724 77.598 2.23072C77.396 1.86225 77.1125 1.54477 76.7692 1.30248C76.4489 1.06573 76.0899 0.886264 75.7083 0.772065C75.2858 0.664033 74.8516 0.608364 74.4154 0.606309H69.9069ZM74.374 7.40231H69.9069V14.0325H69.393V0.125617H74.5646C75.1037 0.122289 75.6402 0.200527 76.1559 0.357675C76.6075 0.496462 77.0253 0.727923 77.3825 1.03727C77.7358 1.33657 78.0188 1.71011 78.2113 2.13126C78.4077 2.59777 78.5037 3.10042 78.493 3.60649C78.497 4.09008 78.4127 4.57034 78.2444 5.02371C78.089 5.44852 77.8494 5.83755 77.5399 6.16742C77.2232 6.50893 76.8469 6.78979 76.4294 6.9962C75.9665 7.2191 75.4663 7.354 74.9541 7.39402L78.319 14.0243H77.6643L74.374 7.40231ZM63.3761 14.0325H62.8788V0.606309H58.6023V0.125617H67.5946V0.606309H63.3761V14.0325ZM58.0056 11.4468C57.6753 12.2503 57.1162 12.939 56.3978 13.4275C55.6244 13.9375 54.7132 14.1979 53.7871 14.1734C53.0624 14.1921 52.342 14.0565 51.6737 13.7756C51.1088 13.5295 50.6073 13.1582 50.2068 12.6899C49.8275 12.223 49.5457 11.6847 49.378 11.107C49.19 10.4891 49.095 9.84662 49.0962 9.20076V4.86624C49.0941 4.23597 49.192 3.60936 49.3863 3.00977C49.5725 2.44208 49.8713 1.91778 50.2648 1.46824C50.6537 1.02063 51.1342 0.661692 51.6737 0.415689C52.3331 0.144749 53.0412 0.0121668 53.7539 0.0261632C54.6542 0.000806978 55.5429 0.233758 56.3149 0.697475C57.0015 1.11517 57.5493 1.72644 57.8896 2.45449L57.4586 2.71141C57.1372 2.06621 56.6512 1.5173 56.0497 1.12015C55.3739 0.685184 54.5821 0.465547 53.7788 0.49028C53.1397 0.474503 52.5044 0.59309 51.9141 0.838367C51.4137 1.05366 50.9667 1.37619 50.6046 1.78318C50.2309 2.18512 49.9483 2.66283 49.7758 3.18381C49.6007 3.73865 49.514 4.31759 49.5189 4.89939V9.2422C49.5146 9.81852 49.6013 10.3919 49.7758 10.9412C49.95 11.4639 50.2324 11.9439 50.6046 12.3501C50.9654 12.7647 51.4122 13.0956 51.9141 13.3198C52.5038 13.5679 53.1391 13.6893 53.7788 13.6762C54.5962 13.7039 55.4009 13.4686 56.0745 13.0049C56.7072 12.5407 57.2096 11.9213 57.5332 11.2064L58.0056 11.4468ZM39.242 0.125617H47.4552V0.606309H39.7807V6.68955H46.3447V7.17025H39.7807V13.4938H47.4552V13.9745H39.242V0.125617ZM28.9817 7.40231H33.3825C33.9354 7.4169 34.4854 7.31818 34.9987 7.11223C35.4152 6.94212 35.7889 6.68171 36.0926 6.34975C36.3757 6.0401 36.5879 5.67241 36.7142 5.27234C36.8406 4.87289 36.9049 4.45641 36.9049 4.03746C36.9137 3.52268 36.8149 3.01174 36.6148 2.53737C36.4393 2.12903 36.1728 1.76618 35.8357 1.47653C35.5018 1.19018 35.1125 0.975753 34.692 0.846655C34.2415 0.705515 33.7717 0.635608 33.2997 0.63946H28.9817V7.40231ZM33.3245 0.158768C33.8514 0.158271 34.3757 0.230789 34.8826 0.374251C35.366 0.504615 35.8174 0.733131 36.2087 1.04556C36.6029 1.37743 36.9174 1.79384 37.1286 2.26387C37.3773 2.84448 37.4961 3.47243 37.4767 4.10376C37.4738 4.55492 37.3982 5.00267 37.2529 5.42981C37.0965 5.88251 36.8513 6.2995 36.5319 6.6564C36.1847 7.03849 35.7612 7.34342 35.2887 7.55149C34.7188 7.79698 34.1023 7.91575 33.482 7.89957H28.9817V14.0077H28.4679V0.125617L33.3245 0.158768ZM21.5641 14.0906C20.7499 14.0998 19.9384 13.9966 19.1524 13.7839C18.3924 13.5691 17.6709 13.2363 17.0141 12.7977L17.3125 12.3584C17.9459 12.7606 18.632 13.073 19.3513 13.2866C20.0826 13.5062 20.842 13.6179 21.6056 13.6182C22.1479 13.622 22.6884 13.5551 23.2134 13.4192C23.6837 13.3017 24.1297 13.1025 24.5312 12.8308C24.8831 12.5739 25.1675 12.2355 25.36 11.8446C25.5821 11.4206 25.6933 10.9473 25.6832 10.4688C25.7064 9.92378 25.5742 9.38338 25.3019 8.91068C25.0588 8.51452 24.7304 8.17758 24.3405 7.92444C23.9519 7.68864 23.5301 7.51262 23.0891 7.40231C22.6167 7.27799 22.1691 7.17025 21.7465 7.09566C21.3238 7.02107 20.7519 6.88846 20.2712 6.75586C19.8164 6.63171 19.3832 6.43887 18.9866 6.184C18.5705 5.92319 18.2334 5.55389 18.0114 5.11581C17.7894 4.67774 17.6911 4.18745 17.7269 3.69766C17.7098 3.20393 17.7977 2.7122 17.9849 2.255C18.1721 1.79781 18.4542 1.38557 18.8126 1.04556C19.6727 0.306177 20.7888 -0.0658516 21.9205 0.00958726C22.5853 0.00933138 23.2477 0.0900409 23.893 0.249933C24.5026 0.396895 25.0904 0.622561 25.6417 0.921246L25.3848 1.38536C24.8572 1.10652 24.3016 0.88428 23.7273 0.722338C23.135 0.565751 22.5248 0.487729 21.9122 0.49028C21.4703 0.487685 21.0301 0.543418 20.6028 0.656035C20.1843 0.765951 19.7906 0.954388 19.4425 1.21132C19.0944 1.47574 18.811 1.81582 18.6137 2.20585C18.3928 2.66849 18.2849 3.17692 18.2987 3.68937C18.2637 4.13442 18.3625 4.57979 18.5826 4.96822C18.8026 5.35665 19.1338 5.67037 19.5336 5.86906C19.9015 6.06381 20.2949 6.20608 20.7022 6.29174L21.9205 6.55695C22.4841 6.67298 23.0311 6.81387 23.5781 6.97134C24.0742 7.1177 24.5441 7.34146 24.9704 7.63436C25.3751 7.92469 25.707 8.30481 25.9401 8.74493C26.2079 9.27887 26.3362 9.8719 26.313 10.4688C26.3303 10.9744 26.2273 11.477 26.0127 11.9351C25.798 12.3933 25.4777 12.794 25.0782 13.1043C24.0573 13.8319 22.8146 14.1807 21.5641 14.0906V14.0906ZM5.49409 0.987548V13.9745H4.98025V0.125617H5.55211L14.304 13.1375V0.125617H14.8262V13.9745H14.246L5.49409 0.987548ZM1.10156 0.158768H1.6154V13.9745H1.11814L1.10156 0.158768Z" fill="#2E3A59"/>
<path d="M31.5185 26.3311C31.3338 26.8462 30.9879 27.2879 30.5323 27.5909C30.0375 27.9044 29.4603 28.0632 28.8747 28.0467C28.4418 28.0557 28.012 27.9709 27.615 27.7981C27.2728 27.6509 26.9672 27.4302 26.7199 27.1516C26.4756 26.8751 26.2921 26.5504 26.1812 26.1985C26.0559 25.8299 25.9887 25.4441 25.9823 25.0548V22.8254C25.9808 22.4401 26.0395 22.057 26.1563 21.69C26.2711 21.3397 26.4542 21.0158 26.695 20.7369C26.9587 20.4526 27.2811 20.2291 27.6398 20.0821C28.0387 19.916 28.4676 19.8342 28.8996 19.8418C29.4866 19.8231 30.0652 19.9851 30.5571 20.3059C31.0043 20.6107 31.3483 21.0443 31.5434 21.5491L30.5986 21.98C30.4732 21.6487 30.2544 21.3608 29.9687 21.1512C29.6605 20.9365 29.2917 20.8261 28.9162 20.8363C28.6301 20.8285 28.3462 20.8881 28.0874 21.0103C27.8638 21.1193 27.666 21.2747 27.5072 21.4662C27.3496 21.6597 27.2314 21.8821 27.1591 22.1209C27.0842 22.3654 27.0451 22.6194 27.0431 22.8751V24.9719C27.0439 25.2359 27.083 25.4983 27.1591 25.751C27.2296 25.9956 27.3479 26.2238 27.5072 26.4223C27.6657 26.6162 27.8634 26.7744 28.0874 26.8864C28.3441 27.0153 28.629 27.078 28.9162 27.0687C29.2974 27.0836 29.6721 26.9665 29.977 26.7372C30.261 26.526 30.4794 26.2387 30.6069 25.9084L31.5185 26.3311ZM23.4794 27.9887V19.8998H24.4988V27.9721L23.4794 27.9887ZM20.7361 27.9887L17.7939 23.447L16.7248 21.6817V27.9804H15.664V19.8998H16.6751L19.5178 24.3006L20.6947 26.2317V19.8998H21.7058V27.9721L20.7361 27.9887ZM12.871 27.9887V19.8998H13.8904V27.9721L12.871 27.9887ZM6.57225 27.9887V19.8998H7.59165V27.0356H11.6775V27.9721L6.57225 27.9887ZM5.51142 26.3311C5.33044 26.8482 4.98373 27.2911 4.52517 27.5909C4.03097 27.9058 3.45337 28.0647 2.86761 28.0467C2.43458 28.0568 2.00459 27.9719 1.60786 27.7981C1.26184 27.6535 0.953009 27.4325 0.704492 27.1516C0.462753 26.8747 0.282028 26.5499 0.174073 26.1985C0.0571856 25.8286 -0.00152826 25.4427 3.02284e-05 25.0548V22.8254C-0.00147707 22.4401 0.0572457 22.057 0.174073 21.69C0.285917 21.3402 0.466223 21.0162 0.704492 20.7369C0.955093 20.4563 1.2632 20.2329 1.60786 20.0821C2.00333 19.9136 2.42946 19.8289 2.85932 19.8335C3.44633 19.8148 4.02492 19.9768 4.51688 20.2976C4.96408 20.6024 5.30804 21.036 5.50313 21.5408L4.55003 21.9717C4.42775 21.641 4.21176 21.353 3.92844 21.143C3.61773 20.927 3.24584 20.8166 2.86761 20.828C2.58149 20.8199 2.2975 20.8795 2.03883 21.0021C1.81366 21.1085 1.61537 21.2643 1.45868 21.4579C1.3011 21.6514 1.18284 21.8738 1.11059 22.1126C1.03172 22.3562 0.992545 22.6108 0.994564 22.8668V24.9719C0.9916 25.2361 1.03077 25.4991 1.11059 25.751C1.18104 25.9956 1.29936 26.2238 1.45868 26.4223C1.61446 26.6189 1.81282 26.7776 2.03883 26.8864C2.29546 27.0156 2.58044 27.0783 2.86761 27.0687C3.24883 27.0836 3.62352 26.9665 3.92844 26.7372C4.21482 26.5284 4.43379 26.2403 4.55832 25.9084L5.51142 26.3311Z" fill="#E40045"/>
</svg>
