<svg width="80" height="80" viewBox="0 0 80 80" fill="none" xmlns="http://www.w3.org/2000/svg">
<path d="M57.6403 31.2874C55.1759 31.2874 53.3603 31.523 51.4403 33.0678C49.2459 34.8334 46.9551 39.8018 46.0727 41.6178C45.9179 41.9378 45.9039 41.7454 44.0499 41.0202C43.5143 40.8106 43.1699 40.761 42.4475 40.4654C42.3167 40.4122 42.6787 39.7014 42.7275 39.6078C46.2403 32.9678 48.1195 29.1886 55.8623 29.7586C59.4223 30.0206 65.6567 31.5954 69.2991 34.1026C73.3711 36.9054 71.7543 43.8998 70.5927 48.6114C70.5527 48.7714 70.5659 48.8086 70.7127 48.8914C74.5095 51.065 74.0275 51.749 74.2207 50.8578C74.7763 48.2926 75.7171 44.8098 75.4643 41.4606C75.2355 38.4278 74.1443 36.973 73.1043 35.7758C69.5531 31.6958 57.9351 28.4538 52.5687 28.8374C47.8059 29.1778 45.4059 32.4142 41.4407 40.191C40.8051 41.4374 40.8271 40.8006 42.6067 41.475C43.5099 41.8174 45.7103 42.6534 46.4703 43.2486C50.7535 46.6014 49.2091 56.6086 43.0491 60.377C40.2891 62.0654 37.8431 61.127 34.9215 60.0098C34.5671 59.8742 34.3983 59.7078 34.3991 59.8778C34.4323 66.3686 36.0859 66.5402 42.2791 69.3978C43.6299 70.0218 43.5327 70.0298 43.6815 69.8722C44.0067 69.5394 44.4067 69.2894 44.8479 69.1426C45.2895 68.9954 45.7595 68.9562 46.2191 69.0278C47.4675 69.1718 49.8687 70.2598 50.9791 70.8446C53.4591 72.1482 54.4491 72.2526 54.7143 73.4566C55.1707 75.531 53.4795 78.0318 51.8483 77.9962C50.7947 77.9734 51.5899 78.0594 48.7283 76.819C47.3443 76.219 44.7339 75.0226 43.5907 74.039C42.3755 72.9934 42.7815 72.0266 42.5107 71.8862C36.6539 68.8502 30.4159 68.2998 31.7507 57.8434C31.8419 57.1274 31.4039 57.299 30.9203 55.377C29.2451 48.721 34.8103 40.2082 40.3007 40.921C40.7335 40.977 43.8371 32.5946 48.3779 29.491C52.0579 26.9746 59.8439 28.749 65.0707 30.5862C69.5411 32.1574 72.6327 33.857 74.5583 36.5262C77.4535 40.5398 75.8575 46.8922 74.8383 51.695C74.6903 52.3914 77.1667 53.3942 76.8671 57.175C76.7159 59.0646 76.2619 60.9182 75.5227 62.6638C74.1835 65.6578 71.8771 69.3686 68.6055 69.6078C66.3811 69.7702 61.7779 69.1278 60.2147 67.6998C55.1583 63.0802 59.7203 48.3862 67.3063 47.6446C67.8331 47.6014 68.3627 47.6854 68.8499 47.8902C69.6499 48.2058 69.7543 48.5186 69.8151 48.283C70.4927 45.663 71.4283 41.4054 71.1059 38.597C70.9691 37.2482 70.3679 35.9888 69.4047 35.0346C68.3167 33.941 63.6619 31.7622 60.3459 31.417C59.4479 31.3155 58.5439 31.2722 57.6403 31.2874ZM74.1163 53.591C74.9723 53.3538 75.0187 53.5662 75.0471 53.471C74.8531 53.2086 74.6367 52.9634 74.4003 52.7382C73.4003 51.7658 73.2607 51.5154 70.8059 50.0138C70.1875 49.6354 66.7467 51.9338 64.8583 56.6138C63.6235 59.675 62.9603 63.7738 64.3203 66.765C65.0751 68.4258 64.9479 68.4618 66.8567 68.683C67.8359 68.7966 68.8887 68.9518 69.7899 68.531C75.1223 66.0414 78.2091 53.799 74.7159 54.0838C72.1159 54.2962 68.7387 61.1022 69.5159 65.7674C69.5319 65.8142 69.5379 65.8642 69.5331 65.9134C69.5287 65.963 69.5139 66.011 69.4895 66.0542C69.4651 66.0974 69.4323 66.135 69.3923 66.165C69.3527 66.1946 69.3071 66.2154 69.2587 66.2266C69.2103 66.2374 69.1603 66.2378 69.1115 66.2282C69.0627 66.2186 69.0167 66.1986 68.9763 66.1702C68.9359 66.1414 68.9019 66.1046 68.8763 66.0622C68.8511 66.0194 68.8351 65.9718 68.8291 65.9226C67.9031 61.8682 71.1431 54.4142 74.1159 53.591H74.1163ZM31.6219 55.035C31.9551 56.4614 32.7419 57.8842 33.8355 58.5338C34.1447 58.7174 35.7555 59.6114 36.1127 59.5854C35.6143 58.9498 35.2232 58.237 34.9547 57.4754C33.6211 53.4274 35.0723 48.4142 37.8511 45.2658C40.5243 42.237 42.8759 42.4258 42.5279 42.2534C36.1331 39.115 30.0691 48.387 31.6215 55.035H31.6219ZM38.8639 57.5362C40.6071 57.5214 42.5983 54.9086 43.1167 53.4386C43.8159 51.4558 44.4043 49.871 43.6839 47.9986C43.4951 47.531 43.1483 47.1446 42.7043 46.9058C42.2603 46.667 41.7467 46.591 41.2527 46.691C40.6127 46.8386 40.5191 47.015 40.0975 47.4966C36.7471 51.3262 37.0443 57.5518 38.8635 57.5362H38.8639ZM46.5703 49.7074C46.5847 47.3622 45.5459 45.087 43.2947 45.4326C42.7207 45.5466 42.1739 45.771 41.6855 46.0934C41.8499 46.2006 43.2311 45.8534 44.1255 47.4838C45.7391 50.4218 43.5351 56.1854 40.1555 57.7318C39.7545 57.8998 39.3332 58.015 38.9023 58.0742C38.7023 58.1386 39.4855 58.6114 40.1979 58.6722C43.0147 58.9114 46.5411 54.3162 46.5699 49.7074H46.5703ZM32.5503 63.493C33.6383 67.8098 37.3995 68.6406 42.7439 71.1962C42.8747 71.259 42.8547 71.1982 43.1635 70.5902C43.2855 70.3502 43.3583 70.6302 39.3815 68.707C35.4827 66.819 34.1679 66.3266 33.7867 61.1374C33.6519 59.307 33.9867 59.557 33.5699 59.3042C32.5859 58.7094 32.3171 58.0566 32.2771 58.3538C32.0181 60.0678 32.1109 61.8162 32.5499 63.493H32.5503ZM53.8323 73.0886C53.6703 72.9462 53.4631 72.8658 53.2475 72.8626C53.0319 72.8594 52.8223 72.933 52.6559 73.0702C50.8419 74.247 50.7759 77.3502 51.9103 77.369C53.5055 77.3958 54.8055 74.2038 53.8319 73.0886H53.8323Z" fill="white"/>
<path d="M21.8029 3.49076C13.9469 3.63876 4.23529 9.47877 3.22651 17.7892C2.66131 22.446 4.12809 27.1988 6.52969 29.7404C9.83597 33.3073 14.2711 35.6249 19.0873 36.3024C20.5293 36.5108 20.6141 36.3448 20.7017 36.5824C23.0217 42.9023 27.3321 46.0283 27.8181 45.6335C28.0305 45.4611 27.7681 45.4655 27.1457 41.9135C26.6129 38.8736 26.4729 36.8336 26.3881 36.216C26.3301 35.7948 32.2141 35.4924 37.0429 30.5036C47.7229 19.4688 38.5293 3.17836 21.8029 3.49076ZM27.0193 35.1772C25.9341 35.438 25.8069 35.4024 25.8169 35.7944C25.9367 38.7923 26.3637 41.7699 27.0913 44.6807C26.6741 44.3743 26.282 44.0351 25.9185 43.6667C24.0318 41.7103 22.5369 39.4113 21.5145 36.8932C20.7305 35.0804 21.6013 36.1036 17.7545 35.31C7.82409 33.2628 2.4029 24.9496 3.9489 17.2464C4.86249 12.6992 8.63609 9.10397 13.1397 6.65117C20.1041 2.85835 30.4089 4.06917 36.0997 9.35557C45.4085 18.002 40.5393 31.9264 27.0193 35.1772Z" fill="white"/>
<path d="M55.3352 5.72931C55.3176 5.51611 55.29 5.21931 55.492 5.18211C55.5196 5.17223 55.5488 5.16827 55.578 5.17055C55.6072 5.17283 55.6356 5.18127 55.6616 5.19535C55.6872 5.20943 55.7096 5.22875 55.7272 5.25215C55.7448 5.27551 55.7576 5.30235 55.764 5.33091C56.0892 6.27531 56.072 7.67811 56.1084 8.78811C56.1116 8.89411 56.0952 8.89411 56.9452 8.50211C58.3944 7.83291 58.9564 7.56291 58.9852 7.55731C59.3348 7.49011 58.484 8.18531 58.2 8.40051C56.836 9.43491 56.4276 9.28931 56.7876 9.51771C57.8416 10.1873 57.9748 10.2405 58.4392 10.5089C58.6984 10.6585 58.4752 10.9729 58.1384 10.9361C57.77 10.8961 57.8224 10.8929 56.316 10.0917C55.9432 9.89171 56.2284 9.80131 55.97 12.1641C55.9544 12.3061 55.6188 12.7157 55.508 10.8233C55.4848 10.4329 55.446 10.0565 55.4412 10.0057C54.6164 10.3961 54.41 10.4913 54.1144 10.6389C53.7096 10.8389 53.6152 11.0505 53.3868 10.9065C53.1788 10.7757 53.238 10.3949 53.5564 10.1785C54.474 9.55491 55.2364 9.44771 54.9828 9.28051C53.5552 8.33411 53.0664 8.33131 53.0552 8.05811C53.0356 7.56731 53.6312 7.71211 54.0692 7.93371C55.5528 8.68251 55.4532 8.80731 55.4532 8.36731C55.3868 8.36811 55.5184 7.97771 55.3352 5.72931Z" fill="white"/>
<path d="M20.4156 64.9677C20.4044 65.4597 19.8816 65.7649 19.7724 64.1061C19.7232 63.3577 19.7172 63.4369 19.6832 63.3613C19.554 63.4205 19.6668 63.3441 18.1596 64.5913C17.8496 64.8477 17.658 64.6625 17.6856 64.4069C17.7256 64.0265 18.1512 63.7929 19.0056 62.9713C19.0856 62.8945 19.028 62.8601 18.466 62.6797C17.572 62.3921 17.5124 62.5765 17.3828 62.3789C17.2136 62.1217 17.5708 61.8685 17.9852 61.9121C18.5205 61.9449 19.0455 62.0741 19.5352 62.2929C19.6848 62.3445 19.6344 62.3357 19.5556 61.0621C19.5522 60.4197 19.4917 59.7793 19.3748 59.1477C19.2592 58.6329 19.802 58.5053 20.0364 59.5741C20.3564 61.0253 20.1848 61.9389 20.3896 61.7717C22.2272 60.2705 22.3336 60.1401 22.4232 60.2117C22.5884 60.3437 20.4772 62.5941 20.4688 62.6033C20.332 62.7633 20.4208 62.6977 21.2772 63.1829C22.282 63.7521 22.2832 63.8473 22.4168 63.7605C22.5608 63.6665 22.7684 64.6125 21.0788 63.8685C20.3916 63.5657 20.418 63.5177 20.4172 63.6785C20.414 64.0053 20.422 64.7001 20.4156 64.9677Z" fill="white"/>
<path d="M10.83 45.0281C11.2528 43.7269 12.6136 44.1001 12.7724 45.0393C12.8106 45.2745 12.7628 45.5154 12.638 45.7182C12.5131 45.921 12.3195 46.0721 12.0924 46.1437C11.9304 46.2001 11.7564 46.2122 11.5882 46.179C11.42 46.1458 11.2637 46.0685 11.1352 45.9549C11.0067 45.8413 10.9108 45.6957 10.8571 45.5329C10.8035 45.3701 10.7941 45.1957 10.83 45.0281ZM12.266 45.1725C12.3592 44.4525 11.272 44.5129 11.2784 45.1101C11.286 45.7981 12.2592 45.9413 12.266 45.1725Z" fill="white"/>
<path d="M15.8518 11.825C8.08498 12.1346 7.75818 11.705 7.69818 12.375C7.53818 14.1842 7.46658 21.2522 7.82298 22.4198C7.90578 22.691 8.12458 22.6598 8.29978 22.6598C17.0238 22.6598 17.0298 22.3214 17.0506 23.1878C17.0622 23.6774 17.3278 30.617 17.3494 30.9022C17.3894 31.4242 17.457 31.6102 17.7258 31.711C17.8526 31.7642 17.9883 31.7931 18.1258 31.7962C20.7594 31.779 27.6034 31.6042 27.6034 31.6042C27.7063 31.5918 27.8009 31.5415 27.8689 31.4633C27.9369 31.385 27.9734 31.2843 27.9714 31.1806C27.9618 30.5522 27.9382 22.9226 27.9402 22.9126C27.9774 22.695 28.0242 22.543 28.6338 22.527C37.2866 22.299 37.177 22.489 37.2554 21.8746C37.3124 21.4038 37.3391 20.9297 37.3354 20.4554C37.3198 10.9754 37.2922 11.0466 36.4986 11.0462C32.3578 11.0462 33.271 11.1834 28.0554 11.1874C27.7886 11.1874 27.6738 11.1634 27.619 10.7546C27.5418 10.1806 27.4234 2.74503 27.419 2.37983C27.4162 2.16023 27.3426 2.07663 27.1182 2.05223C26.1838 1.94943 18.7982 1.99183 17.5114 2.18863C16.8922 2.28343 16.8006 2.13983 16.7678 2.89823C16.757 3.15103 16.7202 10.6154 16.731 11.6182C16.7338 11.7962 16.5854 11.7958 15.8518 11.825Z" fill="#E40045"/>
</svg>
